<?xml version="1.0" encoding="UTF-8" standalone="no"?>
<svg
   xmlns:dc="http://purl.org/dc/elements/1.1/"
   xmlns:cc="http://creativecommons.org/ns#"
   xmlns:rdf="http://www.w3.org/1999/02/22-rdf-syntax-ns#"
   xmlns:svg="http://www.w3.org/2000/svg"
   xmlns="http://www.w3.org/2000/svg"
   xmlns:sodipodi="http://sodipodi.sourceforge.net/DTD/sodipodi-0.dtd"
   xmlns:inkscape="http://www.inkscape.org/namespaces/inkscape"
   width="300"
   height="300"
   viewBox="0 0 300 300"
   version="1.1"
   id="svg2216"
   inkscape:version="1.0.1 (3bc2e813f5, 2020-09-07)"
   sodipodi:docname="_MASTER-FRAME-FONT-NEW.svg">
  <defs
     id="defs2210" />
  <sodipodi:namedview
     id="base"
     pagecolor="#ffffff"
     bordercolor="#666666"
     borderopacity="1.0"
     inkscape:pageopacity="0.0"
     inkscape:pageshadow="2"
     inkscape:zoom="0.98994949"
     inkscape:cx="233.17409"
     inkscape:cy="184.99516"
     inkscape:document-units="px"
     inkscape:current-layer="layer1"
     showgrid="false"
     units="px"
     inkscape:window-width="1366"
     inkscape:window-height="705"
     inkscape:window-x="-8"
     inkscape:window-y="-8"
     inkscape:window-maximized="1"
     fit-margin-top="10"
     fit-margin-left="10"
     fit-margin-bottom="10"
     fit-margin-right="10"
     inkscape:showpageshadow="false"
     scale-x="1"
     inkscape:document-rotation="0" />
  <metadata
     id="metadata2213">
    <rdf:RDF>
      <cc:Work
         rdf:about="">
        <dc:format>image/svg+xml</dc:format>
        <dc:type
           rdf:resource="http://purl.org/dc/dcmitype/StillImage" />
        <dc:title />
      </cc:Work>
    </rdf:RDF>
  </metadata>
  <g
     inkscape:label="Layer 1"
     inkscape:groupmode="layer"
     id="layer1"
     transform="translate(0,0)">
    
<g
       aria-label="e"
       style="font-style:normal;font-variant:normal;font-weight:normal;font-stretch:normal;font-size:5.33333px;line-height:1.25;font-family:'Open Sans';-inkscape-font-specification:'Open Sans, Normal';font-variant-ligatures:normal;font-variant-caps:normal;font-variant-numeric:normal;font-feature-settings:normal;text-align:start;letter-spacing:0px;word-spacing:0px;writing-mode:lr-tb;text-anchor:start;fill:#0000ff;fill-opacity:1;stroke:none"
       id="text824"
       transform="translate(233.93307,-150.92702)">
      <path
         d="m -98.491483,163.89145 c -34.222627,-1.89274 -79.144337,30.5916 -93.814477,50.48092 -16.92708,22.99262 -28.03432,48.33093 -30.29127,77.53015 -0.56423,7.89931 -0.56423,15.58702 0,23.06315 2.39801,28.91711 15.84806,52.73361 32.49303,75.02094 15.23437,20.45356 53.47904,48.24947 93.305427,49.81631 1.410593,-30.04557 1.410593,-60.09115 0,-90.13672 -9.027777,-1.55165 -17.985017,-1.55165 -26.871737,0 -1.26954,2.82118 -1.69271,7.8993 -1.26953,15.23437 0.28211,7.33507 -0.0705,32.98643 -1.05795,35.52549 -12.78522,-1.18553 -49.13288,-31.64637 -56.18583,-46.73968 -7.19401,-15.23437 -10.36783,-27.08333 -9.52148,-35.54688 1.97483,-1.12847 6.34766,-1.48112 13.11849,-1.05794 7.05295,0.56423 49.06235,0.35264 51.74247,-0.63477 1.12847,-7.19401 1.41059,-16.43337 0.84635,-27.7181 -1.97483,-1.41059 -43.77263,-1.90429 -51.1077,-1.48111 -7.19401,0.42317 -11.77843,-0.14106 -13.75326,-1.69271 0.14106,-9.45096 3.31489,-20.80621 9.52149,-34.06576 6.77083,-14.52908 34.02838,-45.3684 55.97424,-46.55604 0.28212,1.69271 0.28212,28.50048 0,35.97661 -0.28212,6.77083 -1e-5,11.63737 0.84635,14.59961 9.02778,1.55165 18.54926,1.55165 28.564457,0 -0.28212,-5.36024 -0.21159,-20.94726 0.21159,-46.76107 0.141053,-19.32509 -0.493713,-34.27734 -1.9043,-44.85677 z"
         style="font-style:normal;font-variant:normal;font-weight:normal;font-stretch:normal;font-size:433.333px;font-family:'SunCatcherStudioFont left';-inkscape-font-specification:'SunCatcherStudioFont left';fill:#010101;fill-opacity:1"
         id="path822"
         inkscape:connector-curvature="0"
         sodipodi:nodetypes="ccccccccccccccccccccccccc" />
    </g>



<g
       aria-label="p"
       style="font-style:normal;font-variant:normal;font-weight:normal;font-stretch:normal;font-size:5.33333px;line-height:1.25;font-family:'Open Sans';-inkscape-font-specification:'Open Sans, Normal';font-variant-ligatures:normal;font-variant-caps:normal;font-variant-numeric:normal;font-feature-settings:normal;text-align:start;letter-spacing:0px;word-spacing:0px;writing-mode:lr-tb;text-anchor:start;fill:#010101;fill-opacity:1;stroke:none"
       id="text828"
       transform="translate(250.8095,-149.27876)">
      <path
         d="m -56.029123,282.36066 c 0.504828,-15.80674 -0.108065,-67.85544 -0.0037,-81.8767 34.611128,18.89939 61.0903634,57.66273 61.7164256,81.8767 -17.3502606,0.7053 -60.3021156,0.7053 -61.7127056,0 z M -87.070325,160.32058 c -1.095556,53.58498 0.438013,97.67046 0.360863,138.96717 -0.141059,56.42361 -0.751798,103.86068 -0.0465,138.5612 11.880581,-1.77083 27.173911,-4.27359 30.951917,-7.42607 l -1.071429,-64.48474 c 0,-28.77604 0.282118,-45.91471 0.846354,-51.41602 5.92448,-0.70529 49.299511,-0.98741 62.9822369,-0.84635 13.6827261,0.28211 24.6784901,-0.0557 30.4619101,-0.76104 C 43.1414,233.39061 -17.231224,167.66959 -87.070325,160.32058 Z"
         style="font-style:normal;font-variant:normal;font-weight:normal;font-stretch:normal;font-size:433.333px;font-family:'SunCatcherStudioFont right';-inkscape-font-specification:'SunCatcherStudioFont right';fill:#010101;fill-opacity:1"
         id="path825"
         inkscape:connector-curvature="0"
         sodipodi:nodetypes="cccccccccccccc" />
    </g>



  </g>
</svg>
