<svg width="125" height="24" viewBox="0 0 125 24" fill="none" xmlns="http://www.w3.org/2000/svg">
<path fill-rule="evenodd" clip-rule="evenodd" d="M60.7526 0V2.79577C61.9377 2.77583 63.115 1.83795 63.56 0.705912V0H60.7526ZM96.6005 2.79586V2.79606H99.4078V2.79586H96.6005ZM99.4078 0.547531C99.0208 1.73065 97.8209 2.74323 96.6005 2.79387V0H99.4078V0.547531ZM47.3758 17.056H43.7767V8.10857H45.2357C46.3605 7.86641 47.3763 6.72953 47.3763 5.59266V8.10857H47.3791V5.59266H47.4824V5.59212H43.8701L43.8702 5.59266H40.8288C40.8453 5.59266 40.8619 5.59248 40.8784 5.59212H38.7234V8.10857H40.9693V19.5724H44.8286C46.0873 19.5556 47.3453 18.3133 47.3758 17.056ZM47.3763 17.056V19.5724H47.3791V17.056H47.3763ZM40.9693 5.58836C42.2262 5.51189 43.4509 4.42446 43.7767 3.19184V0H40.9693V5.58836ZM53.0937 8.10857H56.2325C57.3574 7.86641 58.3732 6.72953 58.3732 5.59266H58.4839V5.59212H50.2863V19.5724H50.6796C51.7074 19.5587 52.7349 18.7277 53.0937 17.7387V8.10857ZM60.7526 5.59212H63.56V17.8949C63.1547 18.8137 62.1819 19.5595 61.2086 19.5724H60.7526V5.59212ZM77.7642 7.29772C76.791 5.97425 75.2282 5.31251 73.0759 5.31251C71.2043 5.31251 69.81 5.96493 68.8929 7.26975V5.59212H66.0855V24H68.8929V23.999H66.0935C67.4928 23.999 68.8921 22.601 68.8921 21.203L68.8929 21.4426V17.8948C69.81 19.1996 71.2043 19.852 73.0759 19.852C75.2282 19.852 76.791 19.1996 77.7642 17.8948C78.7375 16.5713 79.2241 14.8005 79.2241 12.5823C79.2241 10.3641 78.7375 8.60254 77.7642 7.29772ZM75.5464 16.2451C74.9849 16.9721 74.021 17.3356 72.6548 17.3356C71.2885 17.3356 70.3153 16.9721 69.7351 16.2451C69.1736 15.4995 68.8929 14.2785 68.8929 12.5823C68.8929 10.886 69.1736 9.67436 69.7351 8.94739C70.3153 8.20177 71.2885 7.82897 72.6548 7.82897C74.021 7.82897 74.9849 8.20177 75.5464 8.94739C76.1266 9.67436 76.4167 10.886 76.4167 12.5823C76.4167 14.2785 76.1266 15.4995 75.5464 16.2451ZM87.6282 19.852C85.5133 19.852 83.8663 19.1996 82.6872 17.8948C81.5081 16.5713 80.9186 14.8005 80.9186 12.5823C80.9186 10.3641 81.5081 8.60254 82.6872 7.29772C83.8663 5.97425 85.5133 5.31251 87.6282 5.31251C89.7431 5.31251 91.3901 5.97425 92.5692 7.29772C93.7483 8.60254 94.3379 10.3641 94.3379 12.5823C94.3379 14.8005 93.7483 16.5713 92.5692 17.8948C91.3901 19.1996 89.7431 19.852 87.6282 19.852ZM87.6282 17.3356C88.6202 17.3356 89.3875 17.1958 89.9303 16.9162C90.4918 16.6179 90.8942 16.1333 91.1375 15.4622C91.3995 14.7725 91.5305 13.8125 91.5305 12.5823C91.5305 11.352 91.3995 10.4013 91.1375 9.73029C90.8942 9.04059 90.4918 8.55594 89.9303 8.27634C89.3875 7.97809 88.6202 7.82897 87.6282 7.82897C86.6363 7.82897 85.8596 7.97809 85.2981 8.27634C84.7553 8.55594 84.353 9.04059 84.0909 9.73029C83.8476 10.4013 83.726 11.352 83.726 12.5823C83.726 13.8125 83.8476 14.7725 84.0909 15.4622C84.353 16.1333 84.7553 16.6179 85.2981 16.9162C85.8596 17.1958 86.6363 17.3356 87.6282 17.3356ZM99.4078 5.59212H96.6005V19.5724H97.0005C98.022 19.5588 99.043 18.738 99.4078 17.7571V5.59212ZM111.212 8.10857H105.036V17.7233C104.682 18.7191 103.649 19.5587 102.616 19.5724H102.228V5.59212H114.019V17.3734C113.81 18.5143 112.658 19.5571 111.505 19.5724H111.212V8.10857ZM124.581 17.056H124.582V19.5724H124.581V17.056ZM121.025 17.056H124.581C124.55 18.3133 123.292 19.5556 122.034 19.5724H118.217V8.10857H115.971V5.59212H118.081C118.064 5.59248 118.048 5.59266 118.031 5.59266H121.072V5.59212H124.73V5.59266H124.582V8.10857H124.581V5.59266C124.581 6.72953 123.566 7.86641 122.441 8.10857H121.025V17.056ZM121.025 2.98524C120.792 4.28538 119.528 5.47982 118.217 5.58513V0H121.025V2.98524Z" fill="#1D1D1D"/>
<path fill-rule="evenodd" clip-rule="evenodd" d="M11.4005 9.27603C14.1058 6.58165 15.7237 3.15965 15.7237 0H22.0176C22.0176 5.19837 19.4396 10.1344 15.851 13.7085C12.2624 17.2827 7.30634 19.8503 2.08691 19.8503V13.5818C5.25936 13.5818 8.69522 11.9704 11.4005 9.27603Z" fill="#1D1D1D"/>
<path fill-rule="evenodd" clip-rule="evenodd" d="M25.3169 21.2956L13.6891 12.9331L17.3806 7.84158L29.0084 16.2041L25.3169 21.2956Z" fill="#1D1D1D"/>
<path fill-rule="evenodd" clip-rule="evenodd" d="M0 13.6182H2.08577V19.8502H0V13.6182Z" fill="#1D1D1D"/>
</svg>
